<?xml version="1.0" encoding="UTF-8"?>
<svg width="370" height="320" viewBox="0 0 370 320" fill="none" xmlns="http://www.w3.org/2000/svg">
  <rect width="370" height="320" fill="#fff"/>
  <!-- Person with laptop -->
  <ellipse cx="185" cy="250" rx="80" ry="25" fill="#f7fafc"/>
  <circle cx="185" cy="110" r="38" stroke="#6B46C1" stroke-width="3" fill="#fff"/>
  <path d="M155 170 Q185 150 215 170" stroke="#6B46C1" stroke-width="3" fill="none"/>
  <rect x="145" y="170" width="80" height="40" rx="8" fill="#fff" stroke="#6B46C1" stroke-width="3"/>
  <rect x="160" y="185" width="50" height="15" rx="4" fill="#f7fafc" stroke="#6B46C1" stroke-width="2"/>
  <!-- Face -->
  <circle cx="175" cy="110" r="3" fill="#6B46C1"/>
  <circle cx="195" cy="110" r="3" fill="#6B46C1"/>
  <path d="M180 120 Q185 125 190 120" stroke="#6B46C1" stroke-width="2" fill="none"/>
  <!-- Hair -->
  <path d="M147 120 Q140 90 185 75 Q230 90 223 120" stroke="#6B46C1" stroke-width="3" fill="none"/>
  <!-- Arms -->
  <path d="M145 170 Q130 180 150 200" stroke="#6B46C1" stroke-width="3" fill="none"/>
  <path d="M225 170 Q240 180 220 200" stroke="#6B46C1" stroke-width="3" fill="none"/>
  <!-- Digital icons -->
  <!-- Email -->
  <rect x="60" y="80" width="38" height="28" rx="6" fill="#fff" stroke="#6B46C1" stroke-width="2"/>
  <polyline points="62,82 79,98 96,82" stroke="#6B46C1" stroke-width="2" fill="none"/>
  <!-- At symbol -->
  <circle cx="70" cy="170" r="18" stroke="#6B46C1" stroke-width="2" fill="#fff"/>
  <text x="60" y="178" font-size="22" font-family="Arial" fill="#6B46C1">@</text>
  <!-- Lightbulb -->
  <circle cx="300" cy="90" r="16" stroke="#6B46C1" stroke-width="2" fill="#fff"/>
  <ellipse cx="300" cy="90" rx="10" ry="10" fill="#f7e97b"/>
  <path d="M300 100 Q300 95 300 90 Q300 85 300 80" stroke="#6B46C1" stroke-width="2" fill="none"/>
  <!-- Paper plane -->
  <polyline points="90,50 120,60 100,70" stroke="#6B46C1" stroke-width="2" fill="none"/>
  <line x1="120" y1="60" x2="110" y2="80" stroke="#6B46C1" stroke-width="2"/>
</svg> 